<svg xmlns="http://www.w3.org/2000/svg" viewBox="-240 -120 480 240" width="480" height="240" role="img" aria-label="Lemniscate - le 8 couche">
 <style>
   @keyframes wipe { to { transform: scaleX(1); } }
   .wipe { transform: scaleX(0); transform-box: fill-box; transform-origin: left center; animation: wipe 2.4s ease forwards; }
   @media (prefers-reduced-motion: reduce){ .wipe { transform: scaleX(1); animation: none; } }
 </style>
 <defs>
  <linearGradient id="gLem" x1="0" y1="0" x2="1" y2="0.3"><stop offset="0" stop-color="#caa24e"/><stop offset="0.25" stop-color="#f3e2a0"/><stop offset="0.5" stop-color="#b6863a"/><stop offset="0.75" stop-color="#f3e2a0"/><stop offset="1" stop-color="#caa24e"/></linearGradient>
  <filter id="leaf" x="-20%" y="-40%" width="140%" height="180%"><feTurbulence type="fractalNoise" baseFrequency="0.012 0.02" numOctaves="2" seed="7" result="n"/><feDisplacementMap in="SourceGraphic" in2="n" scale="6"/></filter>
  <clipPath id="rev"><rect class="wipe" x="-240" y="-120" width="480" height="240"/></clipPath>
 </defs>
 <path d="M 199.00 -0.26 L 198.94 2.78 L 198.75 5.55 L 198.44 8.31 L 198.00 11.06 L 197.44 13.78 L 196.76 16.47 L 195.96 19.13 L 195.04 21.75 L 194.01 24.33 L 192.86 26.85 L 191.61 29.32 L 190.25 31.73 L 188.79 34.08 L 187.23 36.37 L 185.58 38.58 L 183.84 40.72 L 182.01 42.78 L 180.11 44.76 L 178.12 46.66 L 176.07 48.48 L 173.94 50.21 L 171.75 51.85 L 169.51 53.41 L 167.21 54.87 L 164.86 56.25 L 162.46 57.53 L 160.03 58.72 L 157.56 59.82 L 155.05 60.83 L 152.52 61.75 L 149.97 62.58 L 147.39 63.32 L 144.80 63.98 L 142.19 64.55 L 139.58 65.03 L 136.96 65.43 L 134.33 65.75 L 131.70 65.99 L 129.08 66.15 L 126.45 66.23 L 123.84 66.24 L 121.23 66.18 L 118.63 66.05 L 116.05 65.84 L 113.48 65.58 L 110.92 65.25 L 108.39 64.86 L 105.86 64.40 L 103.36 63.89 L 100.88 63.33 L 98.42 62.71 L 95.98 62.04 L 93.56 61.32 L 91.17 60.56 L 88.80 59.75 L 86.45 58.89 L 84.12 57.99 L 81.82 57.05 L 79.54 56.08 L 77.29 55.07 L 75.06 54.02 L 72.85 52.94 L 70.67 51.83 L 68.51 50.68 L 66.37 49.51 L 64.26 48.31 L 62.17 47.09 L 60.10 45.84 L 58.05 44.56 L 56.02 43.26 L 54.01 41.95 L 52.02 40.61 L 50.05 39.25 L 48.10 37.87 L 46.17 36.48 L 44.25 35.07 L 42.35 33.65 L 40.47 32.21 L 38.60 30.76 L 36.75 29.30 L 34.91 27.82 L 33.08 26.33 L 31.26 24.84 L 29.46 23.33 L 27.67 21.81 L 25.89 20.29 L 24.11 18.76 L 22.35 17.22 L 20.59 15.68 L 18.84 14.13 L 17.09 12.58 L 15.35 11.02 L 13.61 9.46 L 11.88 7.90 L 10.15 6.34 L 8.41 4.77 L 6.68 3.21 L 4.94 1.65 L 3.20 0.10 L 1.41 -1.41 L -0.10 -3.20 L -1.66 -4.94 L -3.22 -6.68 L -4.80 -8.41 L -6.38 -10.14 L -7.97 -11.86 L -9.57 -13.58 L -11.18 -15.30 L -12.79 -17.01 L -14.42 -18.72 L -16.06 -20.42 L -17.71 -22.12 L -19.37 -23.82 L -21.04 -25.51 L -22.73 -27.19 L -24.43 -28.87 L -26.15 -30.54 L -27.88 -32.21 L -29.63 -33.87 L -31.40 -35.52 L -33.19 -37.16 L -35.00 -38.79 L -36.82 -40.41 L -38.67 -42.03 L -40.54 -43.63 L -42.44 -45.22 L -44.36 -46.80 L -46.30 -48.36 L -48.27 -49.91 L -50.27 -51.44 L -52.30 -52.96 L -54.35 -54.46 L -56.44 -55.94 L -58.55 -57.40 L -60.70 -58.83 L -62.87 -60.25 L -65.08 -61.64 L -67.33 -63.00 L -69.61 -64.34 L -71.92 -65.65 L -74.27 -66.92 L -76.66 -68.17 L -79.08 -69.37 L -81.54 -70.55 L -84.04 -71.68 L -86.57 -72.77 L -89.15 -73.82 L -91.76 -74.82 L -94.42 -75.77 L -97.11 -76.67 L -99.84 -77.52 L -102.61 -78.31 L -105.42 -79.04 L -108.26 -79.70 L -111.15 -80.31 L -114.07 -80.84 L -117.02 -81.30 L -120.01 -81.68 L -123.03 -81.99 L -126.08 -82.21 L -129.16 -82.34 L -132.27 -82.39 L -135.40 -82.34 L -138.56 -82.20 L -141.73 -81.96 L -144.92 -81.61 L -148.12 -81.15 L -151.33 -80.59 L -154.54 -79.91 L -157.75 -79.11 L -160.95 -78.19 L -164.15 -77.15 L -167.33 -75.99 L -170.48 -74.70 L -173.60 -73.28 L -176.69 -71.73 L -179.74 -70.04 L -182.74 -68.23 L -185.68 -66.28 L -188.56 -64.19 L -191.37 -61.98 L -194.09 -59.63 L -196.73 -57.16 L -199.27 -54.56 L -201.71 -51.83 L -204.03 -48.98 L -206.24 -46.02 L -208.31 -42.95 L -210.26 -39.77 L -212.06 -36.49 L -213.71 -33.12 L -215.21 -29.67 L -216.54 -26.13 L -217.71 -22.53 L -218.71 -18.87 L -219.53 -15.16 L -220.17 -11.40 L -220.63 -7.62 L -220.91 -3.82 L -221.00 -0.00 L -220.91 3.82 L -220.63 7.62 L -220.17 11.40 L -219.53 15.16 L -218.71 18.87 L -217.71 22.53 L -216.54 26.13 L -215.21 29.67 L -213.71 33.12 L -212.06 36.49 L -210.26 39.77 L -208.31 42.95 L -206.24 46.02 L -204.03 48.98 L -201.71 51.83 L -199.27 54.56 L -196.73 57.16 L -194.09 59.63 L -191.37 61.98 L -188.56 64.19 L -185.68 66.28 L -182.74 68.23 L -179.74 70.04 L -176.69 71.73 L -173.60 73.28 L -170.48 74.70 L -167.33 75.99 L -164.15 77.15 L -160.95 78.19 L -157.75 79.11 L -154.54 79.91 L -151.33 80.59 L -148.12 81.15 L -144.92 81.61 L -141.73 81.96 L -138.56 82.20 L -135.40 82.34 L -132.27 82.39 L -129.16 82.34 L -126.08 82.21 L -123.03 81.99 L -120.01 81.68 L -117.02 81.30 L -114.07 80.84 L -111.15 80.31 L -108.26 79.70 L -105.42 79.04 L -102.61 78.31 L -99.84 77.52 L -97.11 76.67 L -94.42 75.77 L -91.76 74.82 L -89.15 73.82 L -86.57 72.77 L -84.04 71.68 L -81.54 70.55 L -79.08 69.37 L -76.66 68.17 L -74.27 66.92 L -71.92 65.65 L -69.61 64.34 L -67.33 63.00 L -65.08 61.64 L -62.87 60.25 L -60.70 58.83 L -58.55 57.40 L -56.44 55.94 L -54.35 54.46 L -52.30 52.96 L -50.27 51.44 L -48.27 49.91 L -46.30 48.36 L -44.36 46.80 L -42.44 45.22 L -40.54 43.63 L -38.67 42.03 L -36.82 40.41 L -35.00 38.79 L -33.19 37.16 L -31.40 35.52 L -29.63 33.87 L -27.88 32.21 L -26.15 30.54 L -24.43 28.87 L -22.73 27.19 L -21.04 25.51 L -19.37 23.82 L -17.71 22.12 L -16.06 20.42 L -14.42 18.72 L -12.79 17.01 L -11.18 15.30 L -9.57 13.58 L -7.97 11.86 L -6.38 10.14 L -4.80 8.41 L -3.22 6.68 L -1.66 4.94 L -0.10 3.20 L 1.41 1.41 L 3.20 -0.10 L 4.94 -1.65 L 6.68 -3.21 L 8.41 -4.77 L 10.15 -6.34 L 11.88 -7.90 L 13.61 -9.46 L 15.35 -11.02 L 17.09 -12.58 L 18.84 -14.13 L 20.59 -15.68 L 22.35 -17.22 L 24.11 -18.76 L 25.89 -20.29 L 27.67 -21.81 L 29.46 -23.33 L 31.26 -24.84 L 33.08 -26.33 L 34.91 -27.82 L 36.75 -29.30 L 38.60 -30.76 L 40.47 -32.21 L 42.35 -33.65 L 44.25 -35.07 L 46.17 -36.48 L 48.10 -37.87 L 50.05 -39.25 L 52.02 -40.61 L 54.01 -41.95 L 56.02 -43.26 L 58.05 -44.56 L 60.10 -45.84 L 62.17 -47.09 L 64.26 -48.31 L 66.37 -49.51 L 68.51 -50.68 L 70.67 -51.83 L 72.85 -52.94 L 75.06 -54.02 L 77.29 -55.07 L 79.54 -56.08 L 81.82 -57.05 L 84.12 -57.99 L 86.45 -58.89 L 88.80 -59.75 L 91.17 -60.56 L 93.56 -61.32 L 95.98 -62.04 L 98.42 -62.71 L 100.88 -63.33 L 103.36 -63.89 L 105.86 -64.40 L 108.39 -64.86 L 110.92 -65.25 L 113.48 -65.58 L 116.05 -65.84 L 118.63 -66.05 L 121.23 -66.18 L 123.84 -66.24 L 126.45 -66.23 L 129.08 -66.15 L 131.70 -65.99 L 134.33 -65.75 L 136.96 -65.43 L 139.58 -65.03 L 142.19 -64.55 L 144.80 -63.98 L 147.39 -63.32 L 149.97 -62.58 L 152.52 -61.75 L 155.05 -60.83 L 157.56 -59.82 L 160.03 -58.72 L 162.46 -57.53 L 164.86 -56.25 L 167.21 -54.87 L 169.51 -53.41 L 171.75 -51.85 L 173.94 -50.21 L 176.07 -48.48 L 178.12 -46.66 L 180.11 -44.76 L 182.01 -42.78 L 183.84 -40.72 L 185.58 -38.58 L 187.23 -36.37 L 188.79 -34.08 L 190.25 -31.73 L 191.61 -29.32 L 192.86 -26.85 L 194.01 -24.33 L 195.04 -21.75 L 195.96 -19.13 L 196.76 -16.47 L 197.44 -13.78 L 198.00 -11.06 L 198.44 -8.31 L 198.75 -5.55 L 198.94 -2.78 L 199.00 0.26 L 221.00 -0.26 L 220.91 -3.82 L 220.63 -7.62 L 220.17 -11.40 L 219.53 -15.16 L 218.71 -18.87 L 217.71 -22.53 L 216.54 -26.13 L 215.21 -29.67 L 213.71 -33.12 L 212.06 -36.49 L 210.26 -39.77 L 208.31 -42.95 L 206.24 -46.02 L 204.03 -48.98 L 201.71 -51.83 L 199.27 -54.56 L 196.73 -57.16 L 194.09 -59.63 L 191.37 -61.98 L 188.56 -64.19 L 185.68 -66.28 L 182.74 -68.23 L 179.74 -70.04 L 176.69 -71.73 L 173.60 -73.28 L 170.48 -74.70 L 167.33 -75.99 L 164.15 -77.15 L 160.95 -78.19 L 157.75 -79.11 L 154.54 -79.91 L 151.33 -80.59 L 148.12 -81.15 L 144.92 -81.61 L 141.73 -81.96 L 138.56 -82.20 L 135.40 -82.34 L 132.27 -82.39 L 129.16 -82.34 L 126.08 -82.21 L 123.03 -81.99 L 120.01 -81.68 L 117.02 -81.30 L 114.07 -80.84 L 111.15 -80.31 L 108.26 -79.70 L 105.42 -79.04 L 102.61 -78.31 L 99.84 -77.52 L 97.11 -76.67 L 94.42 -75.77 L 91.76 -74.82 L 89.15 -73.82 L 86.57 -72.77 L 84.04 -71.68 L 81.54 -70.55 L 79.08 -69.37 L 76.66 -68.17 L 74.27 -66.92 L 71.92 -65.65 L 69.61 -64.34 L 67.33 -63.00 L 65.08 -61.64 L 62.87 -60.25 L 60.70 -58.83 L 58.55 -57.40 L 56.44 -55.94 L 54.35 -54.46 L 52.30 -52.96 L 50.27 -51.44 L 48.27 -49.91 L 46.30 -48.36 L 44.36 -46.80 L 42.44 -45.22 L 40.54 -43.63 L 38.67 -42.03 L 36.82 -40.41 L 35.00 -38.79 L 33.19 -37.16 L 31.40 -35.52 L 29.63 -33.87 L 27.88 -32.21 L 26.15 -30.54 L 24.43 -28.87 L 22.73 -27.19 L 21.04 -25.51 L 19.37 -23.82 L 17.71 -22.12 L 16.06 -20.42 L 14.42 -18.72 L 12.79 -17.01 L 11.18 -15.30 L 9.57 -13.58 L 7.97 -11.86 L 6.38 -10.14 L 4.80 -8.41 L 3.22 -6.68 L 1.66 -4.94 L 0.10 -3.20 L -1.41 -1.41 L -3.20 0.10 L -4.94 1.65 L -6.68 3.21 L -8.41 4.77 L -10.15 6.34 L -11.88 7.90 L -13.61 9.46 L -15.35 11.02 L -17.09 12.58 L -18.84 14.13 L -20.59 15.68 L -22.35 17.22 L -24.11 18.76 L -25.89 20.29 L -27.67 21.81 L -29.46 23.33 L -31.26 24.84 L -33.08 26.33 L -34.91 27.82 L -36.75 29.30 L -38.60 30.76 L -40.47 32.21 L -42.35 33.65 L -44.25 35.07 L -46.17 36.48 L -48.10 37.87 L -50.05 39.25 L -52.02 40.61 L -54.01 41.95 L -56.02 43.26 L -58.05 44.56 L -60.10 45.84 L -62.17 47.09 L -64.26 48.31 L -66.37 49.51 L -68.51 50.68 L -70.67 51.83 L -72.85 52.94 L -75.06 54.02 L -77.29 55.07 L -79.54 56.08 L -81.82 57.05 L -84.12 57.99 L -86.45 58.89 L -88.80 59.75 L -91.17 60.56 L -93.56 61.32 L -95.98 62.04 L -98.42 62.71 L -100.88 63.33 L -103.36 63.89 L -105.86 64.40 L -108.39 64.86 L -110.92 65.25 L -113.48 65.58 L -116.05 65.84 L -118.63 66.05 L -121.23 66.18 L -123.84 66.24 L -126.45 66.23 L -129.08 66.15 L -131.70 65.99 L -134.33 65.75 L -136.96 65.43 L -139.58 65.03 L -142.19 64.55 L -144.80 63.98 L -147.39 63.32 L -149.97 62.58 L -152.52 61.75 L -155.05 60.83 L -157.56 59.82 L -160.03 58.72 L -162.46 57.53 L -164.86 56.25 L -167.21 54.87 L -169.51 53.41 L -171.75 51.85 L -173.94 50.21 L -176.07 48.48 L -178.12 46.66 L -180.11 44.76 L -182.01 42.78 L -183.84 40.72 L -185.58 38.58 L -187.23 36.37 L -188.79 34.08 L -190.25 31.73 L -191.61 29.32 L -192.86 26.85 L -194.01 24.33 L -195.04 21.75 L -195.96 19.13 L -196.76 16.47 L -197.44 13.78 L -198.00 11.06 L -198.44 8.31 L -198.75 5.55 L -198.94 2.78 L -199.00 -0.00 L -198.94 -2.78 L -198.75 -5.55 L -198.44 -8.31 L -198.00 -11.06 L -197.44 -13.78 L -196.76 -16.47 L -195.96 -19.13 L -195.04 -21.75 L -194.01 -24.33 L -192.86 -26.85 L -191.61 -29.32 L -190.25 -31.73 L -188.79 -34.08 L -187.23 -36.37 L -185.58 -38.58 L -183.84 -40.72 L -182.01 -42.78 L -180.11 -44.76 L -178.12 -46.66 L -176.07 -48.48 L -173.94 -50.21 L -171.75 -51.85 L -169.51 -53.41 L -167.21 -54.87 L -164.86 -56.25 L -162.46 -57.53 L -160.03 -58.72 L -157.56 -59.82 L -155.05 -60.83 L -152.52 -61.75 L -149.97 -62.58 L -147.39 -63.32 L -144.80 -63.98 L -142.19 -64.55 L -139.58 -65.03 L -136.96 -65.43 L -134.33 -65.75 L -131.70 -65.99 L -129.08 -66.15 L -126.45 -66.23 L -123.84 -66.24 L -121.23 -66.18 L -118.63 -66.05 L -116.05 -65.84 L -113.48 -65.58 L -110.92 -65.25 L -108.39 -64.86 L -105.86 -64.40 L -103.36 -63.89 L -100.88 -63.33 L -98.42 -62.71 L -95.98 -62.04 L -93.56 -61.32 L -91.17 -60.56 L -88.80 -59.75 L -86.45 -58.89 L -84.12 -57.99 L -81.82 -57.05 L -79.54 -56.08 L -77.29 -55.07 L -75.06 -54.02 L -72.85 -52.94 L -70.67 -51.83 L -68.51 -50.68 L -66.37 -49.51 L -64.26 -48.31 L -62.17 -47.09 L -60.10 -45.84 L -58.05 -44.56 L -56.02 -43.26 L -54.01 -41.95 L -52.02 -40.61 L -50.05 -39.25 L -48.10 -37.87 L -46.17 -36.48 L -44.25 -35.07 L -42.35 -33.65 L -40.47 -32.21 L -38.60 -30.76 L -36.75 -29.30 L -34.91 -27.82 L -33.08 -26.33 L -31.26 -24.84 L -29.46 -23.33 L -27.67 -21.81 L -25.89 -20.29 L -24.11 -18.76 L -22.35 -17.22 L -20.59 -15.68 L -18.84 -14.13 L -17.09 -12.58 L -15.35 -11.02 L -13.61 -9.46 L -11.88 -7.90 L -10.15 -6.34 L -8.41 -4.77 L -6.68 -3.21 L -4.94 -1.65 L -3.20 -0.10 L -1.41 1.41 L 0.10 3.20 L 1.66 4.94 L 3.22 6.68 L 4.80 8.41 L 6.38 10.14 L 7.97 11.86 L 9.57 13.58 L 11.18 15.30 L 12.79 17.01 L 14.42 18.72 L 16.06 20.42 L 17.71 22.12 L 19.37 23.82 L 21.04 25.51 L 22.73 27.19 L 24.43 28.87 L 26.15 30.54 L 27.88 32.21 L 29.63 33.87 L 31.40 35.52 L 33.19 37.16 L 35.00 38.79 L 36.82 40.41 L 38.67 42.03 L 40.54 43.63 L 42.44 45.22 L 44.36 46.80 L 46.30 48.36 L 48.27 49.91 L 50.27 51.44 L 52.30 52.96 L 54.35 54.46 L 56.44 55.94 L 58.55 57.40 L 60.70 58.83 L 62.87 60.25 L 65.08 61.64 L 67.33 63.00 L 69.61 64.34 L 71.92 65.65 L 74.27 66.92 L 76.66 68.17 L 79.08 69.37 L 81.54 70.55 L 84.04 71.68 L 86.57 72.77 L 89.15 73.82 L 91.76 74.82 L 94.42 75.77 L 97.11 76.67 L 99.84 77.52 L 102.61 78.31 L 105.42 79.04 L 108.26 79.70 L 111.15 80.31 L 114.07 80.84 L 117.02 81.30 L 120.01 81.68 L 123.03 81.99 L 126.08 82.21 L 129.16 82.34 L 132.27 82.39 L 135.40 82.34 L 138.56 82.20 L 141.73 81.96 L 144.92 81.61 L 148.12 81.15 L 151.33 80.59 L 154.54 79.91 L 157.75 79.11 L 160.95 78.19 L 164.15 77.15 L 167.33 75.99 L 170.48 74.70 L 173.60 73.28 L 176.69 71.73 L 179.74 70.04 L 182.74 68.23 L 185.68 66.28 L 188.56 64.19 L 191.37 61.98 L 194.09 59.63 L 196.73 57.16 L 199.27 54.56 L 201.71 51.83 L 204.03 48.98 L 206.24 46.02 L 208.31 42.95 L 210.26 39.77 L 212.06 36.49 L 213.71 33.12 L 215.21 29.67 L 216.54 26.13 L 217.71 22.53 L 218.71 18.87 L 219.53 15.16 L 220.17 11.40 L 220.63 7.62 L 220.91 3.82 L 221.00 0.26 Z" clip-path="url(#rev)" fill="url(#gLem)" filter="url(#leaf)" stroke="#7a5a22" stroke-width="0.6" stroke-opacity="0.5"/>
</svg>