<svg xmlns="http://www.w3.org/2000/svg" viewBox="-300 -300 600 600" width="600" height="600" role="img" aria-label="Spirale de Fibonacci">
 <style>
  @keyframes draw { to { stroke-dashoffset: 0; } }
  .trace { stroke-dasharray: 1; stroke-dashoffset: 1; animation: draw 2.8s ease forwards; }
  @media (prefers-reduced-motion: reduce){ .trace { animation: none; stroke-dashoffset: 0; } }
</style>
 <defs>
  <linearGradient id="gSpiral" x1="0" y1="1" x2="0.9" y2="0"><stop offset="0" stop-color="#fff1a8"/><stop offset="0.4" stop-color="#f3cf5e"/><stop offset="0.72" stop-color="#e8a23a"/><stop offset="1" stop-color="#d6791f"/></linearGradient>
  <linearGradient id="gFaint" x1="0" y1="0" x2="1" y2="1"><stop offset="0" stop-color="#b89a3e" stop-opacity="0.8"/><stop offset="1" stop-color="#8a7320" stop-opacity="0.55"/></linearGradient>
  <filter id="glow1" x="-30%" y="-30%" width="160%" height="160%"><feGaussianBlur stdDeviation="7" result="b"/><feMerge><feMergeNode in="b"/><feMergeNode in="SourceGraphic"/></feMerge></filter>
 </defs>
 <g opacity="0.7"><circle class="trace" pathLength="1" cx="0" cy="0" r="270.0" fill="none" stroke="url(#gFaint)" stroke-width="1.4" style="animation-delay:.2s"/><circle class="trace" pathLength="1" cx="0" cy="0" r="166.9" fill="none" stroke="url(#gFaint)" stroke-width="1.4" style="animation-delay:.2s"/><circle class="trace" pathLength="1" cx="0" cy="0" r="103.1" fill="none" stroke="url(#gFaint)" stroke-width="1.4" style="animation-delay:.2s"/><circle class="trace" pathLength="1" cx="0" cy="0" r="63.7" fill="none" stroke="url(#gFaint)" stroke-width="1.4" style="animation-delay:.2s"/><circle class="trace" pathLength="1" cx="0" cy="0" r="39.4" fill="none" stroke="url(#gFaint)" stroke-width="1.4" style="animation-delay:.2s"/><circle class="trace" pathLength="1" cx="0" cy="0" r="24.3" fill="none" stroke="url(#gFaint)" stroke-width="1.4" style="animation-delay:.2s"/><circle class="trace" pathLength="1" cx="0" cy="0" r="15.0" fill="none" stroke="url(#gFaint)" stroke-width="1.4" style="animation-delay:.2s"/></g>
 <path class="trace" pathLength="1" d="M 270.00 0.00 L 267.68 7.21 L 265.20 14.30 L 262.54 21.26 L 259.72 28.08 L 256.75 34.78 L 253.61 41.34 L 250.34 47.75 L 246.91 54.03 L 243.35 60.16 L 239.66 66.14 L 235.84 71.97 L 231.90 77.66 L 227.83 83.18 L 223.66 88.55 L 219.38 93.77 L 214.99 98.82 L 210.51 103.71 L 205.93 108.45 L 201.27 113.01 L 196.53 117.42 L 191.71 121.66 L 186.81 125.74 L 181.86 129.65 L 176.83 133.39 L 171.76 136.97 L 166.63 140.38 L 161.45 143.63 L 156.23 146.71 L 150.97 149.62 L 145.68 152.37 L 140.36 154.95 L 135.02 157.37 L 129.66 159.63 L 124.29 161.72 L 118.90 163.65 L 113.51 165.43 L 108.12 167.04 L 102.73 168.49 L 97.35 169.79 L 91.98 170.94 L 86.63 171.93 L 81.30 172.77 L 75.99 173.46 L 70.70 174.00 L 65.45 174.39 L 60.23 174.65 L 55.05 174.76 L 49.91 174.73 L 44.82 174.56 L 39.77 174.26 L 34.78 173.83 L 29.84 173.27 L 24.96 172.58 L 20.13 171.77 L 15.38 170.83 L 10.68 169.78 L 6.06 168.61 L 1.50 167.32 L -2.98 165.93 L -7.38 164.42 L -11.71 162.82 L -15.96 161.11 L -20.12 159.30 L -24.21 157.40 L -28.20 155.40 L -32.11 153.32 L -35.93 151.14 L -39.66 148.89 L -43.29 146.55 L -46.83 144.14 L -50.28 141.65 L -53.63 139.10 L -56.89 136.47 L -60.04 133.78 L -63.10 131.03 L -66.06 128.22 L -68.92 125.36 L -71.67 122.44 L -74.33 119.48 L -76.88 116.47 L -79.33 113.42 L -81.68 110.33 L -83.93 107.20 L -86.07 104.04 L -88.11 100.85 L -90.05 97.63 L -91.88 94.39 L -93.61 91.13 L -95.25 87.85 L -96.77 84.55 L -98.20 81.24 L -99.53 77.92 L -100.76 74.60 L -101.89 71.27 L -102.91 67.93 L -103.85 64.60 L -104.68 61.28 L -105.42 57.95 L -106.06 54.64 L -106.61 51.34 L -107.07 48.05 L -107.43 44.78 L -107.71 41.53 L -107.89 38.30 L -107.99 35.09 L -108.00 31.90 L -107.93 28.75 L -107.77 25.62 L -107.53 22.52 L -107.21 19.46 L -106.81 16.43 L -106.33 13.43 L -105.78 10.48 L -105.15 7.56 L -104.45 4.69 L -103.68 1.86 L -102.84 -0.92 L -101.94 -3.66 L -100.97 -6.35 L -99.93 -8.99 L -98.83 -11.59 L -97.68 -14.13 L -96.46 -16.61 L -95.19 -19.05 L -93.87 -21.42 L -92.49 -23.75 L -91.06 -26.01 L -89.59 -28.22 L -88.06 -30.37 L -86.50 -32.46 L -84.89 -34.49 L -83.24 -36.47 L -81.55 -38.38 L -79.83 -40.22 L -78.07 -42.01 L -76.28 -43.74 L -74.46 -45.40 L -72.61 -47.00 L -70.73 -48.53 L -68.83 -50.00 L -66.90 -51.41 L -64.95 -52.76 L -62.99 -54.04 L -61.00 -55.26 L -59.01 -56.42 L -56.99 -57.51 L -54.97 -58.54 L -52.93 -59.50 L -50.89 -60.41 L -48.84 -61.25 L -46.79 -62.03 L -44.73 -62.74 L -42.67 -63.40 L -40.61 -64.00 L -38.56 -64.53 L -36.50 -65.01 L -34.45 -65.42 L -32.41 -65.78 L -30.38 -66.08 L -28.35 -66.33 L -26.34 -66.52 L -24.33 -66.65 L -22.35 -66.73 L -20.37 -66.75 L -18.41 -66.72 L -16.48 -66.64 L -14.55 -66.51 L -12.65 -66.33 L -10.77 -66.10 L -8.92 -65.82 L -7.08 -65.49 L -5.27 -65.12 L -3.49 -64.70 L -1.73 -64.24 L 0.00 -63.74 L 1.70 -63.19 L 3.37 -62.60 L 5.02 -61.98 L 6.63 -61.31 L 8.21 -60.61 L 9.76 -59.87 L 11.27 -59.10 L 12.75 -58.29 L 14.20 -57.45 L 15.61 -56.58 L 16.99 -55.67 L 18.33 -54.74 L 19.64 -53.78 L 20.90 -52.80 L 22.14 -51.79 L 23.33 -50.75 L 24.48 -49.69 L 25.60 -48.61 L 26.68 -47.51 L 27.72 -46.39 L 28.72 -45.26 L 29.68 -44.10 L 30.61 -42.93 L 31.49 -41.74 L 32.33 -40.55 L 33.14 -39.33 L 33.91 -38.11 L 34.63 -36.88 L 35.32 -35.64 L 35.97 -34.39 L 36.58 -33.14 L 37.15 -31.87 L 37.68 -30.61 L 38.18 -29.34 L 38.63 -28.07 L 39.05 -26.80 L 39.43 -25.52 L 39.78 -24.25 L 40.08 -22.98 L 40.35 -21.71 L 40.59 -20.45 L 40.78 -19.19 L 40.95 -17.94 L 41.08 -16.69 L 41.17 -15.45 L 41.23 -14.22 L 41.25 -13.00 L 41.25 -11.78 L 41.21 -10.58 L 41.14 -9.39 L 41.04 -8.21 L 40.90 -7.04 L 40.74 -5.89 L 40.55 -4.75 L 40.33 -3.63 L 40.08 -2.52 L 39.80 -1.43 L 39.50 -0.35 L 39.17 0.70 L 38.82 1.74 L 38.44 2.76 L 38.03 3.77 L 37.61 4.75 L 37.16 5.71 L 36.69 6.66 L 36.19 7.58 L 35.68 8.48 L 35.15 9.36 L 34.60 10.22 L 34.03 11.06 L 33.44 11.87 L 32.84 12.66 L 32.22 13.43 L 31.58 14.17 L 30.93 14.90 L 30.27 15.59 L 29.59 16.27 L 28.91 16.92 L 28.21 17.55 L 27.49 18.15 L 26.77 18.73 L 26.04 19.28 L 25.31 19.81 L 24.56 20.32 L 23.81 20.80 L 23.05 21.26 L 22.28 21.69 L 21.51 22.10 L 20.74 22.48 L 19.96 22.85 L 19.18 23.18 L 18.39 23.50 L 17.61 23.79 L 16.82 24.05 L 16.04 24.29 L 15.25 24.51 L 14.47 24.71 L 13.68 24.89 L 12.90 25.04 L 12.12 25.17 L 11.34 25.28 L 10.57 25.36 L 9.80 25.43 L 9.04 25.47 L 8.28 25.49 L 7.53 25.50 L 6.79 25.48 L 6.05 25.44 L 5.32 25.38 L 4.59 25.31 L 3.88 25.21 L 3.17 25.10 L 2.47 24.97 L 1.79 24.82 L 1.11 24.66 L 0.44 24.48 L -0.22 24.28 L -0.86 24.06 L -1.50 23.83 L -2.12 23.59 L -2.73 23.33 L -3.33 23.06 L -3.92 22.77 L -4.50 22.47 L -5.06 22.16 L -5.61 21.83 L -6.14 21.50 L -6.66 21.15 L -7.17 20.79 L -7.66 20.42 L -8.14 20.04 L -8.61 19.65 L -9.06 19.25 L -9.50 18.84 L -9.92 18.43 L -10.32 18.01 L -10.72 17.58 L -11.09 17.14 L -11.46 16.70 L -11.80 16.25 L -12.14 15.79 L -12.45 15.33 L -12.76 14.87 L -13.05 14.40 L -13.32 13.93 L -13.58 13.45 L -13.82 12.98 L -14.05 12.50 L -14.26 12.01 L -14.46 11.53 L -14.64 11.05 L -14.81 10.56 L -14.97 10.07 L -15.11 9.59 L -15.23 9.10 L -15.35 8.62 L -15.44 8.13 L -15.53 7.65 L -15.60 7.17 L -15.66 6.69 L -15.70 6.22 L -15.73 5.74 L -15.75 5.28 L -15.76 4.81 L -15.75 4.35 L -15.73 3.89 L -15.70 3.44 L -15.66 2.99 L -15.60 2.54 L -15.54 2.10 L -15.46 1.67 L -15.37 1.24 L -15.27 0.82 L -15.17 0.41 L -15.05 -0.00 L -14.92 -0.40 L -14.78 -0.80 L -14.63 -1.18 L -14.47 -1.57 L -14.31 -1.94 L -14.13 -2.30 L -13.95 -2.66 L -13.76 -3.01 L -13.56 -3.35 L -13.36 -3.69 L -13.14 -4.01 L -12.92 -4.33 L -12.70 -4.64 L -12.46 -4.93 L -12.23 -5.23 L -11.98 -5.51 L -11.73 -5.78 L -11.48 -6.04 L -11.22 -6.30 L -10.95 -6.54 L -10.68 -6.78 L -10.41 -7.01 L -10.13 -7.23 L -9.85 -7.43 L -9.57 -7.63 L -9.29 -7.82 L -9.00 -8.00 L -8.71 -8.18 L -8.41 -8.34 L -8.12 -8.49 L -7.82 -8.64 L -7.52 -8.77 L -7.23 -8.90 L -6.93 -9.01 L -6.63 -9.12 L -6.33 -9.22 L -6.03 -9.31 L -5.73 -9.39 L -5.43 -9.46 L -5.13 -9.53 L -4.83 -9.58 L -4.53 -9.63 L -4.23 -9.67 L -3.94 -9.70 L -3.65 -9.72 L -3.36 -9.73 L -3.07 -9.74 L -2.78 -9.74 L -2.50 -9.73 L -2.22 -9.71 L -1.94 -9.69 L -1.66 -9.66 L -1.39 -9.62 L -1.12 -9.57 L -0.86 -9.52 L -0.60 -9.46 L -0.34 -9.40 L -0.08 -9.32 L 0.17 -9.25 L 0.41 -9.16 L 0.65 -9.07 L 0.89 -8.98 L 1.12 -8.88 L 1.35 -8.77 L 1.57 -8.66 L 1.79 -8.54 L 2.00 -8.42 L 2.21 -8.30 L 2.41 -8.17 L 2.61 -8.03 L 2.80 -7.89 L 2.99 -7.75 L 3.17 -7.61 L 3.35 -7.46 L 3.52 -7.30 L 3.68 -7.15 L 3.84 -6.99 L 3.99 -6.82 L 4.14 -6.66 L 4.28 -6.49 L 4.42 -6.32 L 4.55 -6.15 L 4.68 -5.97 L 4.80 -5.80 L 4.91 -5.62 L 5.02 -5.44 L 5.12 -5.26 L 5.22 -5.08 L 5.31 -4.90 L 5.39 -4.71 L 5.47 -4.53 L 5.55 -4.34 L 5.62 -4.16 L 5.68 -3.97 L 5.74 -3.79 L 5.79 -3.60 L 5.83 -3.41 L 5.87 -3.23 L 5.91 -3.05 L 5.94 -2.86 L 5.97 -2.68 L 5.99 -2.50 L 6.00 -2.31 L 6.01 -2.13 L 6.02 -1.96 L 6.02 -1.78 L 6.01 -1.60 L 6.01 -1.43 L 5.99 -1.26 L 5.97 -1.08 L 5.95 -0.92 L 5.93 -0.75 L 5.89 -0.58 L 5.86 -0.42 L 5.82 -0.26 L 5.78 -0.10 L 5.73 0.05 L 5.68 0.20 L 5.63 0.35 L 5.57 0.50 L 5.51 0.65 L 5.44 0.79 L 5.38 0.93 L 5.30 1.06 L 5.23 1.19 L 5.15 1.32 L 5.07 1.45 L 4.99 1.57 L 4.91 1.69 L 4.82 1.81 L 4.73 1.92 L 4.64 2.03 L 4.54 2.14 L 4.45 2.24 L 4.35 2.34 L 4.25 2.44 L 4.15 2.53 L 4.05 2.62 L 3.94 2.70 L 3.84 2.79 L 3.73 2.87 L 3.62 2.94 L 3.51 3.01 L 3.40 3.08 L 3.29 3.14 L 3.18 3.20 L 3.06 3.26 L 2.95 3.32 L 2.84 3.37 L 2.72 3.41 L 2.61 3.46 L 2.49 3.50 L 2.38 3.53 L 2.26 3.57 L 2.15 3.60 L 2.03 3.62 L 1.92 3.65 L 1.81 3.67 L 1.69 3.68 L 1.58 3.70 L 1.47 3.71 L 1.36 3.71 L 1.25 3.72 L 1.14 3.72 L 1.03 3.72 L 0.92 3.71 L 0.81 3.71 L 0.71 3.70 L 0.60 3.68 L 0.50 3.67 L 0.39 3.65 L 0.29 3.63 L 0.19 3.61 L 0.10 3.58 L -0.00 3.55 L -0.09 3.52 L -0.19 3.49 L -0.28 3.45 L -0.37 3.42 L -0.46 3.38 L -0.54 3.34 L -0.63 3.29 L -0.71 3.25 L -0.79 3.20 L -0.87 3.15 L -0.95 3.10 L -1.02 3.05 L -1.09 3.00 L -1.16 2.94 L -1.23 2.89 L -1.30 2.83 L -1.36 2.77 L -1.43 2.71 L -1.49 2.65 L -1.54 2.59 L -1.60 2.52 L -1.65 2.46 L -1.71 2.39 L -1.75 2.33 L -1.80 2.26 L -1.85 2.19 L -1.89 2.12 L -1.93 2.06 L -1.97 1.99 L -2.00 1.92 L -2.04 1.85 L -2.07 1.78 L -2.10 1.71 L -2.13 1.64 L -2.15 1.56 L -2.18 1.49 L -2.20 1.42 L -2.22 1.35 L -2.23 1.28 L -2.25 1.21 L -2.26 1.14 L -2.27 1.07 L -2.28 1.00 L -2.29 0.93 L -2.29 0.86 L -2.30 0.79 L -2.30 0.72 L -2.30 0.66 L -2.30 0.59 L -2.29 0.52 L -2.29 0.46 L -2.28 0.39 L -2.27 0.33 L -2.26 0.26 L -2.25 0.20 L -2.23 0.14 L -2.22 0.08 L -2.20 0.02 L -2.18 -0.04 L -2.16 -0.10 L -2.14 -0.15 L -2.12 -0.21 L -2.10 -0.26 L -2.07 -0.32 L -2.04 -0.37 L -2.02 -0.42 L -1.99 -0.47 L -1.96 -0.52 L -1.93 -0.57 L -1.90 -0.62 L -1.86 -0.66 L -1.83 -0.71 L -1.80 -0.75 L -1.76 -0.79 L -1.72 -0.83 L -1.69 -0.87 L -1.65 -0.91 L -1.61 -0.94 L -1.57 -0.98 L -1.53 -1.01 L -1.49 -1.04 L -1.45 -1.07 L -1.41 -1.10 L -1.37 -1.13 L -1.33 -1.16 L -1.28 -1.18 L -1.24 -1.21 L -1.20 -1.23 L -1.16 -1.25 L -1.11 -1.27 L -1.07 -1.29 L -1.03 -1.31 L -0.98 -1.33 L -0.94 -1.34 L -0.89 -1.35 L -0.85 -1.37 L -0.81 -1.38 L -0.76 -1.39 L -0.72 -1.40 L -0.68 -1.40 L -0.63 -1.41 L -0.59 -1.41 L -0.55 -1.42 L -0.50 -1.42 L -0.46 -1.42 L -0.42 -1.42 L -0.38 -1.42 L -0.34 -1.42 L -0.30 -1.41 L -0.26 -1.41 L -0.22 -1.41 L -0.18 -1.40 L -0.14 -1.39 L -0.10 -1.38 L -0.06 -1.37 L -0.02 -1.36 L 0.01 -1.35 L 0.05 -1.34 L 0.08 -1.33 L 0.12 -1.31 L 0.15 -1.30 L 0.19 -1.28 L 0.22 -1.27 L 0.25 -1.25 L 0.28 -1.23 L 0.31 -1.22 L 0.34 -1.20 L 0.37 -1.18 L 0.40 -1.16 L 0.43 -1.14 L 0.45 -1.12 L 0.48 -1.10 L 0.50 -1.07 L 0.53 -1.05 L 0.55 -1.03 L 0.58 -1.00 L 0.60 -0.98 L 0.62 -0.96 L 0.64 -0.93 L 0.66 -0.91 L 0.68 -0.88 L 0.69 -0.85 L 0.71 -0.83 L 0.73 -0.80 L 0.74 -0.78 L 0.76 -0.75 L 0.77 -0.72 L 0.78 -0.70 L 0.79 -0.67 L 0.81 -0.64 L 0.82 -0.62 L 0.83 -0.59 L 0.83 -0.56 L 0.84 -0.53 L 0.85 -0.51 L 0.86 -0.48 L 0.86 -0.45 L 0.87 -0.43 L 0.87 -0.40 L 0.87 -0.37 L 0.88 -0.35 L 0.88 -0.32 L 0.88 -0.29 L 0.88 -0.27 L 0.88 -0.24 L 0.88 -0.22 L 0.88 -0.19 L 0.87 -0.17 L 0.87 -0.14 L 0.87 -0.12 L 0.86 -0.09 L 0.86 -0.07 L 0.85 -0.05 L 0.85 -0.02 L 0.84 -0.00" fill="none" stroke="url(#gSpiral)" stroke-width="9" stroke-linecap="round" filter="url(#glow1)"/>
</svg>